<svg xmlns="http://www.w3.org/2000/svg" xmlns:xlink="http://www.w3.org/1999/xlink" width="500" zoomAndPan="magnify" viewBox="0 0 375 374.999991" height="500" preserveAspectRatio="xMidYMid meet" version="1.0"><defs><g/><clipPath id="da911e117a"><path d="M 64.128906 142 L 101.628906 142 L 101.628906 174.0625 L 64.128906 174.0625 Z M 64.128906 142 " clip-rule="nonzero"/></clipPath><clipPath id="c3437da52b"><path d="M 37.5 174.300781 L 68.25 174.300781 L 68.25 217.050781 L 37.5 217.050781 Z M 37.5 174.300781 " clip-rule="nonzero"/></clipPath></defs><g clip-path="url(#da911e117a)"><path fill="#000000" d="M 90.167969 158.84375 C 88.898438 158.84375 87.871094 157.816406 87.871094 156.550781 C 87.871094 155.285156 88.898438 154.257812 90.167969 154.257812 C 91.4375 154.257812 92.464844 155.285156 92.464844 156.550781 C 92.464844 157.816406 91.4375 158.84375 90.167969 158.84375 Z M 82.511719 158.84375 C 81.246094 158.84375 80.214844 157.816406 80.214844 156.550781 C 80.214844 155.285156 81.246094 154.257812 82.511719 154.257812 C 83.78125 154.257812 84.808594 155.285156 84.808594 156.550781 C 84.808594 157.816406 83.78125 158.84375 82.511719 158.84375 Z M 74.855469 158.84375 C 73.589844 158.84375 72.558594 157.816406 72.558594 156.550781 C 72.558594 155.285156 73.589844 154.257812 74.855469 154.257812 C 76.125 154.257812 77.152344 155.285156 77.152344 156.550781 C 77.152344 157.816406 76.125 158.84375 74.855469 158.84375 Z M 83.113281 142.023438 C 72.816406 141.820312 64.34375 148.15625 64.183594 156.171875 C 64.128906 158.957031 65.085938 161.582031 66.792969 163.828125 C 69.726562 167.589844 66.523438 174.054688 66.523438 174.054688 L 75.972656 169.992188 C 78.011719 170.632812 80.222656 171.007812 82.542969 171.054688 C 92.839844 171.257812 101.3125 164.921875 101.472656 156.90625 C 101.632812 148.886719 93.410156 142.226562 83.113281 142.023438 " fill-opacity="1" fill-rule="evenodd"/></g><g clip-path="url(#c3437da52b)"><path fill="#000000" d="M 67.296875 184.847656 L 57.78125 175.273438 C 57.195312 174.683594 56.316406 174.316406 55.4375 174.316406 L 40.792969 174.316406 C 38.964844 174.316406 37.5 175.789062 37.5 177.628906 L 37.5 213.722656 C 37.5 215.5625 38.964844 217.035156 40.792969 217.035156 L 64.957031 217.035156 C 66.785156 217.035156 68.25 215.5625 68.25 213.722656 L 68.25 187.132812 C 68.25 186.246094 67.882812 185.4375 67.296875 184.847656 Z M 58.878906 185.070312 C 58.144531 185.070312 57.5625 184.480469 57.5625 183.742188 L 57.5625 176.964844 L 65.613281 185.070312 Z M 58.878906 185.070312 " fill-opacity="1" fill-rule="nonzero"/></g><g fill="#7c3aed" fill-opacity="1"><g transform="translate(76.479205, 215.925982)"><g><path d="M 3.703125 0 L 3.703125 -41.421875 L 16.4375 -41.421875 C 20.082031 -41.421875 23.34375 -40.597656 26.21875 -38.953125 C 29.09375 -37.316406 31.332031 -34.984375 32.9375 -31.953125 C 34.550781 -28.929688 35.359375 -25.5 35.359375 -21.65625 L 35.359375 -19.75 C 35.359375 -15.894531 34.566406 -12.46875 32.984375 -9.46875 C 31.398438 -6.476562 29.164062 -4.15625 26.28125 -2.5 C 23.40625 -0.851562 20.15625 -0.0195312 16.53125 0 Z M 12.234375 -34.515625 L 12.234375 -6.859375 L 16.359375 -6.859375 C 19.691406 -6.859375 22.238281 -7.945312 24 -10.125 C 25.769531 -12.3125 26.675781 -15.429688 26.71875 -19.484375 L 26.71875 -21.671875 C 26.71875 -25.890625 25.84375 -29.082031 24.09375 -31.25 C 22.351562 -33.425781 19.800781 -34.515625 16.4375 -34.515625 Z M 12.234375 -34.515625 "/></g></g></g><g fill="#7c3aed" fill-opacity="1"><g transform="translate(114.338559, 215.925982)"><g><path d="M 1.875 -15.671875 C 1.875 -18.722656 2.460938 -21.441406 3.640625 -23.828125 C 4.816406 -26.222656 6.507812 -28.078125 8.71875 -29.390625 C 10.925781 -30.703125 13.492188 -31.359375 16.421875 -31.359375 C 20.566406 -31.359375 23.953125 -30.085938 26.578125 -27.546875 C 29.210938 -25.003906 30.679688 -21.550781 30.984375 -17.1875 L 31.03125 -15.078125 C 31.03125 -10.359375 29.710938 -6.570312 27.078125 -3.71875 C 24.441406 -0.863281 20.90625 0.5625 16.46875 0.5625 C 12.03125 0.5625 8.488281 -0.859375 5.84375 -3.703125 C 3.195312 -6.546875 1.875 -10.414062 1.875 -15.3125 Z M 10.09375 -15.078125 C 10.09375 -12.160156 10.644531 -9.925781 11.75 -8.375 C 12.851562 -6.832031 14.425781 -6.0625 16.46875 -6.0625 C 18.457031 -6.0625 20.007812 -6.820312 21.125 -8.34375 C 22.25 -9.875 22.8125 -12.316406 22.8125 -15.671875 C 22.8125 -18.535156 22.25 -20.753906 21.125 -22.328125 C 20.007812 -23.898438 18.441406 -24.6875 16.421875 -24.6875 C 14.410156 -24.6875 12.851562 -23.90625 11.75 -22.34375 C 10.644531 -20.78125 10.09375 -18.359375 10.09375 -15.078125 Z M 10.09375 -15.078125 "/></g></g></g><g fill="#7c3aed" fill-opacity="1"><g transform="translate(147.277045, 215.925982)"><g><path d="M 15.953125 -6.0625 C 17.472656 -6.0625 18.707031 -6.476562 19.65625 -7.3125 C 20.601562 -8.144531 21.097656 -9.253906 21.140625 -10.640625 L 28.84375 -10.640625 C 28.820312 -8.554688 28.253906 -6.644531 27.140625 -4.90625 C 26.023438 -3.164062 24.492188 -1.816406 22.546875 -0.859375 C 20.597656 0.0859375 18.453125 0.5625 16.109375 0.5625 C 11.703125 0.5625 8.226562 -0.832031 5.6875 -3.625 C 3.144531 -6.425781 1.875 -10.289062 1.875 -15.21875 L 1.875 -15.765625 C 1.875 -20.503906 3.132812 -24.285156 5.65625 -27.109375 C 8.1875 -29.941406 11.648438 -31.359375 16.046875 -31.359375 C 19.898438 -31.359375 22.988281 -30.257812 25.3125 -28.0625 C 27.632812 -25.875 28.8125 -22.957031 28.84375 -19.3125 L 21.140625 -19.3125 C 21.097656 -20.90625 20.601562 -22.195312 19.65625 -23.1875 C 18.707031 -24.1875 17.457031 -24.6875 15.90625 -24.6875 C 13.988281 -24.6875 12.539062 -23.988281 11.5625 -22.59375 C 10.582031 -21.207031 10.09375 -18.945312 10.09375 -15.8125 L 10.09375 -14.96875 C 10.09375 -11.800781 10.578125 -9.523438 11.546875 -8.140625 C 12.515625 -6.753906 13.984375 -6.0625 15.953125 -6.0625 Z M 15.953125 -6.0625 "/></g></g></g><g fill="#000000" fill-opacity="1"><g transform="translate(177.658886, 215.925982)"><g><path d="M 34.875 -34.515625 L 22.1875 -34.515625 L 22.1875 0 L 13.65625 0 L 13.65625 -34.515625 L 1.140625 -34.515625 L 1.140625 -41.421875 L 34.875 -41.421875 Z M 34.875 -34.515625 "/></g></g></g><g fill="#000000" fill-opacity="1"><g transform="translate(213.697805, 215.925982)"><g><path d="M 21 0 C 20.613281 -0.738281 20.335938 -1.660156 20.171875 -2.765625 C 18.179688 -0.546875 15.59375 0.5625 12.40625 0.5625 C 9.382812 0.5625 6.882812 -0.304688 4.90625 -2.046875 C 2.925781 -3.796875 1.9375 -6 1.9375 -8.65625 C 1.9375 -11.914062 3.144531 -14.414062 5.5625 -16.15625 C 7.976562 -17.90625 11.472656 -18.789062 16.046875 -18.8125 L 19.828125 -18.8125 L 19.828125 -20.5625 C 19.828125 -21.988281 19.460938 -23.128906 18.734375 -23.984375 C 18.003906 -24.835938 16.851562 -25.265625 15.28125 -25.265625 C 13.894531 -25.265625 12.804688 -24.929688 12.015625 -24.265625 C 11.234375 -23.597656 10.84375 -22.6875 10.84375 -21.53125 L 2.625 -21.53125 C 2.625 -23.320312 3.171875 -24.972656 4.265625 -26.484375 C 5.367188 -28.003906 6.925781 -29.195312 8.9375 -30.0625 C 10.945312 -30.925781 13.203125 -31.359375 15.703125 -31.359375 C 19.492188 -31.359375 22.503906 -30.40625 24.734375 -28.5 C 26.960938 -26.59375 28.078125 -23.910156 28.078125 -20.453125 L 28.078125 -7.109375 C 28.097656 -4.191406 28.503906 -1.984375 29.296875 -0.484375 L 29.296875 0 Z M 14.203125 -5.71875 C 15.410156 -5.71875 16.523438 -5.988281 17.546875 -6.53125 C 18.578125 -7.070312 19.335938 -7.796875 19.828125 -8.703125 L 19.828125 -14 L 16.75 -14 C 12.632812 -14 10.445312 -12.578125 10.1875 -9.734375 L 10.15625 -9.25 C 10.15625 -8.21875 10.515625 -7.367188 11.234375 -6.703125 C 11.953125 -6.046875 12.941406 -5.71875 14.203125 -5.71875 Z M 14.203125 -5.71875 "/></g></g></g><g fill="#000000" fill-opacity="1"><g transform="translate(244.929634, 215.925982)"><g><path d="M 11.828125 0 L 3.578125 0 L 3.578125 -43.703125 L 11.828125 -43.703125 Z M 11.828125 0 "/></g></g></g><g fill="#000000" fill-opacity="1"><g transform="translate(260.374888, 215.925982)"><g><path d="M 14.34375 -12.34375 L 11.375 -9.390625 L 11.375 0 L 3.15625 0 L 3.15625 -43.703125 L 11.375 -43.703125 L 11.375 -19.484375 L 12.96875 -21.53125 L 20.859375 -30.78125 L 30.71875 -30.78125 L 19.609375 -17.953125 L 31.6875 0 L 22.25 0 Z M 14.34375 -12.34375 "/></g></g></g><g fill="#000000" fill-opacity="1"><g transform="translate(291.49294, 215.925982)"><g><path d="M 17.328125 0.5625 C 12.816406 0.5625 9.140625 -0.816406 6.296875 -3.578125 C 3.460938 -6.347656 2.046875 -10.039062 2.046875 -14.65625 L 2.046875 -15.453125 C 2.046875 -18.535156 2.644531 -21.296875 3.84375 -23.734375 C 5.039062 -26.171875 6.734375 -28.050781 8.921875 -29.375 C 11.109375 -30.695312 13.609375 -31.359375 16.421875 -31.359375 C 20.628906 -31.359375 23.941406 -30.03125 26.359375 -27.375 C 28.773438 -24.71875 29.984375 -20.953125 29.984375 -16.078125 L 29.984375 -12.71875 L 10.390625 -12.71875 C 10.648438 -10.707031 11.445312 -9.09375 12.78125 -7.875 C 14.125 -6.664062 15.816406 -6.0625 17.859375 -6.0625 C 21.035156 -6.0625 23.515625 -7.207031 25.296875 -9.5 L 29.328125 -4.984375 C 28.097656 -3.234375 26.429688 -1.867188 24.328125 -0.890625 C 22.222656 0.078125 19.890625 0.5625 17.328125 0.5625 Z M 16.390625 -24.6875 C 14.753906 -24.6875 13.425781 -24.132812 12.40625 -23.03125 C 11.394531 -21.9375 10.75 -20.367188 10.46875 -18.328125 L 21.90625 -18.328125 L 21.90625 -18.96875 C 21.863281 -20.789062 21.367188 -22.195312 20.421875 -23.1875 C 19.472656 -24.1875 18.128906 -24.6875 16.390625 -24.6875 Z M 16.390625 -24.6875 "/></g></g></g><g fill="#000000" fill-opacity="1"><g transform="translate(322.980773, 215.925982)"><g><path d="M 20.453125 -23.078125 C 19.335938 -23.222656 18.351562 -23.296875 17.5 -23.296875 C 14.382812 -23.296875 12.34375 -22.242188 11.375 -20.140625 L 11.375 0 L 3.15625 0 L 3.15625 -30.78125 L 10.921875 -30.78125 L 11.15625 -27.109375 C 12.800781 -29.941406 15.085938 -31.359375 18.015625 -31.359375 C 18.921875 -31.359375 19.769531 -31.234375 20.5625 -30.984375 Z M 20.453125 -23.078125 "/></g></g></g></svg>